<?xml version="1.0" standalone="no"?>
<!DOCTYPE svg PUBLIC "-//W3C//DTD SVG 20010904//EN"
 "http://www.w3.org/TR/2001/REC-SVG-20010904/DTD/svg10.dtd">
<svg version="1.0" xmlns="http://www.w3.org/2000/svg"
 width="1654.000000pt" height="1654.000000pt" viewBox="0 0 1654.000000 1654.000000"
 preserveAspectRatio="xMidYMid meet">

<g transform="translate(0.000000,1654.000000) scale(0.100000,-0.100000)"
fill="#000000" stroke="none">
<path d="M8030 14814 c-108 -32 -719 -226 -1420 -451 -1339 -429 -1819 -587
-1872 -615 -62 -33 -104 -79 -124 -137 -16 -45 -22 108 81 -2241 55 -1249 90
-1962 99 -2012 8 -43 26 -102 40 -133 l25 -55 -38 0 c-21 0 -75 -11 -122 -25
-176 -53 -2897 -981 -3093 -1055 -81 -31 -151 -97 -170 -161 -12 -38 -13 -80
-5 -221 8 -146 216 -3463 234 -3733 12 -174 66 -308 159 -392 52 -46 427 -249
816 -440 96 -47 188 -97 204 -110 20 -17 39 -23 60 -21 30 3 31 4 34 60 2 47
7 61 27 77 25 19 25 20 25 187 0 187 -16 666 -26 787 -4 47 -12 83 -21 92 -38
38 -119 4 -317 -134 -78 -53 -163 -112 -191 -130 l-50 -32 60 56 c168 158 516
442 553 452 34 8 71 -13 96 -56 44 -75 47 -119 57 -705 5 -308 10 -561 12
-562 1 -2 27 4 57 11 30 8 72 17 92 20 l37 6 -20 45 c-13 28 -22 78 -26 135
-5 78 -4 92 12 109 10 12 25 18 32 16 7 -3 13 1 13 9 0 8 139 128 310 266 170
139 310 255 310 260 0 7 -57 123 -195 400 -24 48 -69 131 -100 185 -31 54 -59
107 -61 117 -2 10 -22 53 -45 95 l-42 77 2 124 1 123 -24 -6 c-29 -7 -28 -10
-56 127 -11 54 -22 103 -26 108 -3 5 -16 9 -30 9 -14 0 -34 5 -45 10 -18 10
-19 6 -19 -108 0 -95 -3 -122 -15 -132 -9 -7 -13 -15 -10 -18 3 -3 -3 -14 -12
-25 -10 -11 -13 -17 -6 -14 14 9 12 -48 -3 -63 -7 -7 -11 49 -13 172 -1 100
-4 185 -6 189 -3 3 -7 147 -9 320 -6 349 -14 481 -28 473 -10 -6 -11 560 -1
674 7 80 34 117 84 115 27 -1 789 -329 890 -384 l21 -11 -21 -22 -21 -22 125
-54 126 -55 -64 -3 c-37 -2 -100 5 -150 16 -48 11 -84 16 -82 11 3 -4 -11 -27
-32 -50 -21 -24 -32 -39 -24 -34 11 6 12 5 5 -6 -4 -8 -9 -20 -11 -28 -1 -8
-17 -30 -35 -50 -19 -20 -41 -45 -49 -55 -12 -18 -12 -19 1 -11 8 5 -13 -23
-47 -62 -35 -39 -63 -77 -63 -85 0 -8 -9 -23 -19 -32 -22 -20 -24 -53 -4 -77
8 -9 13 -20 12 -25 -4 -23 2 -65 9 -61 9 6 9 -99 0 -109 -4 -4 -4 -12 1 -18 6
-7 2 -25 -9 -49 -10 -20 -13 -34 -7 -30 6 3 -2 -10 -17 -30 -16 -20 -25 -37
-20 -37 4 0 -8 -16 -27 -37 -18 -20 -27 -32 -19 -28 13 8 13 7 0 -10 -36 -46
-97 -96 -123 -102 -25 -5 -27 -7 -14 -27 15 -22 120 -209 349 -621 77 -137
145 -255 151 -261 11 -9 93 -48 197 -91 32 -14 29 -10 -27 41 -71 65 -135 177
-127 222 15 84 58 110 169 101 130 -10 268 -90 413 -242 113 -117 136 -187 83
-247 -28 -31 -33 -33 -98 -33 -37 0 -84 3 -103 7 -26 6 -13 -4 49 -39 73 -40
211 -97 218 -90 1 2 -2 32 -7 67 -16 112 -13 204 9 231 11 13 22 21 25 18 3
-3 12 -76 18 -162 11 -139 14 -157 30 -157 19 0 38 28 38 59 0 11 -12 57 -27
103 -15 46 -26 88 -25 95 5 24 -75 213 -211 503 l-35 75 56 60 c64 67 121 118
107 95 -5 -8 16 6 46 33 31 26 59 47 63 47 3 0 6 -46 6 -102 0 -57 3 -133 7
-171 6 -65 7 -67 24 -51 18 16 19 36 19 251 0 220 1 235 20 255 l20 22 0 -40
c1 -184 21 -928 25 -932 3 -3 8 -2 11 1 4 3 1 379 -6 835 -10 677 -9 836 1
872 8 25 32 63 59 91 42 44 101 74 770 395 399 190 778 373 843 406 143 71
157 69 197 -27 24 -59 24 -66 31 -460 4 -220 7 -455 8 -523 1 -119 2 -122 21
-112 18 10 19 9 10 -17 -6 -16 -15 -38 -21 -50 -8 -15 -9 -72 -4 -188 l7 -166
32 4 c105 16 172 29 177 35 4 4 35 93 69 197 87 262 185 530 268 731 76 185
213 477 219 470 3 -2 0 -14 -7 -25 -6 -13 -7 -21 -1 -21 6 0 6 -11 -1 -31 -14
-42 -2 -49 26 -14 23 29 23 29 35 8 6 -12 11 -66 12 -120 1 -159 14 -316 27
-321 7 -2 12 -14 12 -26 0 -13 9 -35 20 -49 11 -14 21 -33 23 -43 2 -11 13
-41 25 -68 13 -28 25 -60 28 -73 3 -12 12 -27 20 -34 8 -6 14 -22 14 -35 0
-13 9 -33 21 -45 11 -11 22 -32 23 -45 2 -14 12 -36 24 -51 12 -14 19 -30 16
-35 -3 -4 0 -8 5 -8 6 0 11 -6 11 -14 0 -8 7 -22 16 -30 8 -9 12 -20 9 -26 -3
-5 -2 -10 4 -10 9 0 48 110 53 149 1 9 5 -27 9 -79 6 -94 6 -5 -8 738 -4 222
-3 372 3 372 26 -1 32 -22 38 -125 35 -599 95 -1000 174 -1170 l30 -62 198
-115 c298 -172 348 -198 384 -198 23 0 33 -5 37 -19 5 -18 129 -83 222 -116
61 -21 111 -20 111 3 0 9 -50 94 -111 187 -130 199 -203 343 -223 437 -12 62
-12 67 3 59 10 -6 21 -34 29 -76 24 -127 62 -197 227 -420 153 -207 230 -331
223 -361 -3 -13 -218 89 -458 218 -89 48 -413 242 -538 321 -40 26 -74 47 -77
47 -11 0 75 -129 118 -177 54 -58 212 -169 292 -203 28 -12 147 -55 265 -95
242 -82 296 -103 387 -147 75 -36 150 -102 159 -140 l6 -26 -84 43 c-45 24
-225 111 -398 193 -509 241 -966 468 -976 483 -5 8 -12 61 -15 119 l-5 105 -2
-121 -2 -121 -192 -116 c-302 -180 -841 -496 -975 -572 -68 -38 -123 -71 -123
-74 0 -4 50 -28 110 -56 103 -46 158 -83 144 -97 -3 -4 0 -16 6 -28 12 -22 11
-22 -34 -18 -38 3 -45 1 -40 -12 4 -8 7 -23 8 -33 0 -9 8 -20 18 -23 10 -3 16
-9 13 -14 -3 -5 -31 0 -63 11 -83 29 -159 35 -205 16 l-37 -16 0 115 c0 112 1
115 24 124 32 12 78 70 96 123 13 37 14 108 4 577 -15 687 -35 1404 -40 1409
-2 2 -9 -1 -16 -7 -7 -5 -30 -13 -52 -17 l-39 -8 7 -211 c27 -895 32 -1834 9
-1857 -9 -9 -76 54 -146 140 -15 18 -29 32 -31 30 -1 -2 -29 -77 -61 -166 -31
-90 -61 -163 -65 -163 -7 0 -869 -410 -1093 -521 -123 -60 -199 -74 -254 -46
l-30 16 -6 -147 c-4 -81 -10 -554 -13 -1051 l-7 -903 34 7 c47 10 76 22 83 34
6 10 20 241 31 521 3 85 10 223 15 305 5 83 14 251 20 375 14 295 28 348 125
486 64 90 153 167 315 273 80 52 147 98 150 101 3 4 107 75 233 159 125 84
227 157 227 162 0 6 4 8 9 5 5 -4 11 -3 13 2 5 13 219 140 275 163 29 12 59
19 66 16 24 -9 28 -59 34 -411 5 -306 4 -340 -11 -348 -9 -5 -14 -13 -11 -18
3 -5 10 -60 16 -122 10 -115 4 -232 -12 -223 -4 3 -28 -8 -51 -25 l-43 -32 -7
64 c-3 35 -9 125 -13 200 -7 125 -10 138 -26 138 -20 0 -101 -30 -109 -40 -3
-4 -13 -9 -22 -13 -17 -6 -21 4 -31 82 -1 7 -41 -26 -89 -73 -119 -118 -153
-186 -153 -307 0 -55 -4 -85 -10 -82 -5 3 -24 16 -42 29 l-31 24 -10 -28
c-112 -308 -162 -460 -162 -487 0 -19 -5 -46 -10 -61 -21 -53 -50 -175 -49
-202 0 -15 -3 -46 -6 -68 -6 -35 -13 -45 -49 -64 -22 -13 -42 -24 -43 -25 -1
0 -10 -18 -18 -39 l-16 -38 28 6 c52 13 307 144 475 244 92 55 170 97 173 92
8 -13 -86 -80 -215 -153 -223 -125 -366 -204 -427 -238 -45 -24 -65 -41 -73
-63 -5 -16 -9 -30 -7 -32 1 -1 191 99 422 223 231 123 499 266 595 317 96 51
206 114 244 141 l69 48 -7 236 c-23 875 -28 1217 -17 1244 6 17 18 27 30 27
33 0 129 -40 135 -55 3 -8 13 -15 22 -15 8 0 14 -6 12 -12 -3 -7 6 -24 19 -38
13 -14 26 -34 29 -45 3 -11 18 -26 34 -33 39 -18 76 -57 97 -103 9 -22 21 -39
27 -39 5 0 7 -3 3 -6 -8 -8 52 -69 76 -77 10 -4 15 -11 12 -17 -3 -5 -1 -10 6
-10 6 0 29 -20 51 -45 22 -25 44 -45 49 -45 4 0 24 -16 43 -35 20 -19 40 -35
46 -35 6 0 8 -4 5 -10 -3 -5 -2 -10 3 -10 6 0 13 -11 16 -25 4 -14 11 -25 17
-25 6 0 17 -7 26 -15 11 -12 19 -13 28 -5 10 8 25 1 59 -30 26 -22 56 -45 68
-51 20 -11 20 -10 -2 22 -36 52 -142 151 -225 210 -41 29 -73 55 -70 57 2 3
41 -17 87 -44 182 -107 321 -232 334 -300 4 -23 16 -40 35 -51 35 -21 36 -29
7 -55 -21 -18 -21 -18 8 1 75 49 148 170 160 264 l7 47 21 -62 c29 -88 68
-149 123 -198 47 -41 381 -235 781 -452 111 -60 202 -113 202 -117 0 -10 47
-31 69 -31 21 0 31 26 31 82 0 28 6 41 27 56 l28 20 8 304 c10 353 3 724 -14
744 -18 22 -80 16 -144 -15 -33 -15 -125 -71 -205 -122 -173 -113 -220 -142
-220 -136 0 6 207 177 215 177 3 0 3 -6 -1 -12 -4 -8 -3 -10 2 -5 5 5 9 14 9
20 0 15 371 296 401 303 28 7 66 -15 90 -52 49 -74 54 -219 34 -894 -6 -205
-9 -375 -6 -378 5 -5 84 7 163 25 21 5 21 6 6 41 -9 21 -18 82 -21 138 -4 96
-4 102 18 117 12 8 29 13 36 10 8 -3 14 1 14 10 0 9 137 120 313 252 171 130
313 242 315 249 2 7 -18 57 -44 112 -25 54 -52 117 -60 139 -8 22 -22 51 -31
65 -10 14 -18 32 -19 40 -2 8 -41 92 -87 185 -47 94 -103 212 -125 263 l-40
92 4 120 5 121 -24 -6 c-26 -7 -25 -12 -63 212 -5 24 -12 32 -32 36 -15 3 -37
8 -48 12 -21 6 -22 3 -29 -112 -6 -107 -9 -120 -32 -145 -26 -27 -28 -35 -12
-55 7 -7 6 -14 -1 -18 -6 -3 -8 -10 -5 -15 3 -5 2 -11 -2 -13 -5 -3 -7 258 -5
580 2 415 0 583 -8 578 -7 -5 -9 13 -6 57 8 97 21 437 18 493 -1 28 3 82 8
120 8 55 16 75 36 93 47 41 14 54 603 -235 184 -90 337 -166 339 -168 3 -3 -2
-13 -11 -23 -10 -10 -17 -21 -17 -24 0 -3 52 -29 115 -59 108 -51 135 -69 101
-69 -39 0 -172 23 -208 36 l-42 14 -53 -52 c-29 -28 -50 -54 -48 -56 3 -3 -1
-12 -8 -21 -11 -14 -10 -14 5 -2 10 7 15 18 11 24 -3 6 -1 7 6 3 8 -5 -8 -30
-46 -74 -32 -37 -47 -58 -33 -47 14 11 -8 -15 -47 -57 -40 -42 -73 -81 -73
-86 0 -6 -11 -24 -26 -41 -14 -16 -26 -32 -27 -34 -1 -1 6 -15 16 -31 10 -15
16 -30 13 -33 -2 -3 -1 -16 5 -30 6 -16 6 -22 -2 -18 -5 4 -3 -9 5 -28 10 -25
12 -46 6 -71 -4 -20 -4 -34 0 -31 17 11 -5 -51 -29 -79 -9 -11 -10 -16 -3 -12
21 13 13 -10 -13 -34 -14 -13 -25 -28 -25 -34 0 -5 -15 -26 -32 -45 -18 -20
-24 -29 -12 -21 11 8 0 -4 -25 -28 -25 -24 -45 -47 -43 -53 1 -5 -1 -8 -5 -7
-5 0 -16 -2 -25 -5 -10 -4 -25 -9 -34 -12 -9 -3 -14 -9 -12 -13 3 -8 334 -656
422 -827 l41 -80 121 -62 122 -62 -64 63 c-65 65 -124 167 -124 214 0 40 30
89 61 102 20 9 55 11 102 7 59 -5 89 -14 167 -54 81 -41 109 -62 193 -148 55
-55 112 -122 128 -150 50 -87 35 -163 -37 -181 -29 -7 -148 0 -179 11 -39 14
101 -69 170 -100 118 -54 111 -58 101 55 -5 54 -6 117 -2 141 8 48 29 84 44
75 5 -3 13 -78 17 -166 4 -88 10 -160 14 -160 17 0 39 27 44 53 2 16 -4 61
-14 100 -11 40 -22 88 -24 107 -9 61 -52 176 -166 446 l-60 140 69 71 c38 39
84 79 103 88 19 10 51 31 72 47 l37 30 0 -178 0 -178 23 22 c21 22 22 31 27
251 5 190 8 233 21 248 9 10 19 25 22 33 4 8 3 -209 0 -482 -4 -328 -3 -498 4
-498 12 0 18 191 34 1040 8 450 14 618 25 655 16 62 68 124 126 153 24 12 333
149 688 303 762 332 910 396 970 425 67 33 98 8 127 -103 13 -48 14 -99 9
-288 -3 -126 -9 -355 -12 -509 l-7 -278 22 11 c20 11 20 10 9 -16 -7 -15 -15
-32 -19 -38 -4 -5 -10 -90 -13 -188 l-7 -178 53 7 c29 3 64 8 78 10 14 2 39 4
56 6 30 2 32 5 84 147 88 240 224 577 315 776 82 182 231 475 241 475 3 0 0
-8 -5 -18 -6 -11 -9 -27 -9 -38 1 -10 -2 -29 -6 -41 -10 -32 9 -37 29 -6 17
25 19 25 31 9 9 -13 13 -70 14 -212 0 -120 5 -204 12 -221 6 -16 10 -32 9 -37
-1 -4 4 -14 10 -22 6 -8 8 -14 4 -14 -5 0 -1 -8 8 -18 9 -10 18 -27 20 -38 2
-10 13 -41 25 -67 12 -27 21 -51 20 -55 -2 -12 20 -60 31 -67 6 -3 9 -17 7
-31 -3 -13 -1 -24 3 -24 10 0 41 -56 41 -76 0 -9 6 -25 14 -33 8 -9 16 -23 18
-31 2 -8 6 -17 9 -20 3 -3 12 -23 21 -45 l16 -40 17 40 c66 155 109 470 135
980 19 379 18 371 46 371 21 0 24 -5 24 -37 0 -65 -20 -382 -55 -894 -19 -275
-38 -549 -43 -609 l-7 -109 -110 -62 c-100 -56 -435 -238 -880 -480 -93 -51
-222 -118 -285 -150 l-115 -57 110 -55 c120 -60 148 -83 153 -125 3 -26 0 -28
-38 -28 -37 0 -40 -2 -31 -19 6 -10 7 -21 4 -25 -4 -3 2 -13 13 -20 34 -25 10
-26 -59 -1 -71 26 -156 32 -201 15 l-26 -10 0 115 c0 95 3 115 15 115 29 0 94
70 113 123 18 49 20 107 32 1015 7 529 10 965 7 968 -3 3 -27 -1 -53 -9 l-49
-14 -7 -309 c-3 -170 -12 -579 -18 -909 -7 -330 -13 -613 -15 -630 -11 -138
-18 -204 -24 -214 -8 -12 -71 51 -137 134 -18 22 -34 38 -36 35 -3 -3 -32 -74
-65 -159 l-60 -154 -59 -24 c-105 -44 -966 -419 -1071 -467 -124 -56 -191 -66
-245 -38 l-36 19 -6 -91 c-7 -103 -47 -953 -70 -1486 -9 -195 -18 -392 -21
-437 -3 -46 -3 -83 -1 -83 25 0 107 24 115 34 11 13 20 96 51 486 53 663 81
946 101 1006 56 173 184 308 434 456 66 39 129 78 140 88 11 9 90 59 175 110
181 110 283 175 302 193 23 22 251 143 312 166 46 17 61 19 67 9 16 -26 22
-171 15 -393 -8 -285 -15 -365 -31 -365 -9 0 -10 -11 -4 -42 10 -51 11 -227 3
-281 -4 -23 -12 -37 -21 -37 -8 0 -30 -12 -49 -26 -19 -15 -37 -24 -41 -21 -3
4 -8 95 -11 203 l-5 196 -33 -5 c-18 -3 -55 -16 -83 -30 l-51 -24 -6 36 c-3
20 -6 43 -8 51 -1 9 -37 -19 -95 -75 -118 -115 -151 -176 -158 -299 l-6 -86
-35 31 c-19 17 -38 27 -42 22 -19 -19 -192 -472 -195 -508 -1 -22 -16 -80 -33
-130 -17 -49 -34 -121 -37 -159 l-7 -68 -48 -22 c-39 -17 -50 -28 -63 -63
l-16 -42 57 21 c104 38 268 116 446 213 97 52 178 95 181 95 3 0 5 -5 5 -10 0
-19 -116 -86 -419 -241 -288 -148 -321 -169 -321 -209 0 -5 179 79 398 186
218 108 482 236 586 286 104 50 228 114 276 144 l87 54 6 68 c4 37 7 211 8
387 1 456 14 1017 23 1038 11 23 44 22 101 -3 51 -22 95 -57 95 -77 0 -6 12
-25 26 -42 14 -17 23 -35 20 -40 -4 -5 3 -13 15 -16 36 -12 97 -74 110 -113 6
-20 17 -42 23 -49 42 -50 76 -83 85 -83 6 0 11 -7 11 -15 0 -8 7 -15 15 -15 8
0 15 -7 15 -15 0 -9 7 -18 15 -21 8 -4 13 -10 10 -14 -3 -5 4 -11 15 -15 11
-4 18 -11 15 -16 -4 -5 0 -9 8 -9 21 0 97 -77 109 -110 5 -17 15 -30 22 -30 6
0 17 -10 25 -22 12 -20 15 -20 26 -5 10 14 15 13 44 -13 18 -17 29 -30 25 -30
-4 0 8 -11 27 -23 19 -13 36 -23 37 -21 18 13 -157 196 -254 266 -24 17 -42
34 -39 36 9 9 225 -142 293 -204 63 -57 122 -142 122 -177 0 -11 9 -21 19 -24
33 -9 35 -36 4 -62 l-28 -23 34 18 c75 42 153 157 180 266 6 25 24 291 41 590
16 298 66 1191 110 1983 44 792 80 1479 80 1527 0 83 -1 89 -31 122 -36 42
-93 70 -249 124 -240 83 -681 256 -2025 790 -961 382 -1045 412 -1148 412 -35
0 -36 1 -27 26 26 66 32 149 50 628 11 281 47 1224 80 2096 34 872 60 1615 58
1652 -3 59 -8 71 -33 99 -41 42 -98 70 -256 122 -293 98 -948 341 -2434 904
-385 147 -729 272 -765 279 -108 22 -251 17 -350 -12z m-619 -614 c66 -34 184
-90 262 -126 135 -63 143 -65 178 -54 46 15 74 2 82 -39 5 -25 19 -36 85 -71
44 -22 90 -52 102 -65 l23 -25 -26 0 c-15 0 -65 18 -111 39 -46 21 -101 44
-123 51 -21 7 -45 18 -53 25 -8 7 -60 33 -115 59 -55 26 -191 91 -303 144
-198 93 -203 96 -175 108 15 7 34 13 41 13 7 1 67 -26 133 -59z m936 -257 c-3
-10 -5 -4 -5 12 0 17 2 24 5 18 2 -7 2 -21 0 -30z m-1515 -48 c76 -24 150 -51
165 -60 l28 -15 -40 6 c-71 11 -299 55 -340 66 l-40 10 35 19 c19 10 40 18 45
19 6 0 72 -20 147 -45z m1540 -120 c20 -24 27 -25 120 -25 62 0 97 -4 93 -10
-6 -10 -156 -60 -180 -60 -27 0 -66 44 -72 83 -7 44 7 49 39 12z m-2832 -30
c169 -33 430 -70 706 -100 126 -14 315 -36 419 -50 105 -13 253 -29 330 -36
77 -6 141 -12 143 -14 1 -1 -9 -10 -24 -20 -17 -11 -101 -29 -228 -50 -548
-90 -667 -76 -1146 130 -80 34 -185 79 -235 100 -91 38 -134 65 -105 65 8 0
71 -11 140 -25z m6028 -157 c61 -29 56 -49 -20 -83 -88 -38 -140 -56 -136 -47
2 5 18 43 37 85 38 85 34 84 119 45z m-6546 -131 c82 -37 79 -47 -10 -30 -102
19 -256 71 -289 97 l-27 20 38 17 38 17 97 -48 c53 -27 122 -59 153 -73z
m3539 4 c138 -48 542 -235 594 -275 19 -14 19 -16 4 -31 -16 -16 -22 -14 -90
26 -126 73 -442 217 -602 273 -10 3 -15 10 -12 16 9 15 46 12 106 -9z m-165
-82 c631 -268 1149 -478 1258 -510 39 -12 122 -41 185 -66 70 -28 123 -43 139
-40 29 5 63 -7 115 -43 52 -35 49 -54 -7 -47 -30 4 -46 3 -49 -6 -4 -13 -92
21 -218 84 -41 22 -97 43 -125 48 -63 12 -175 52 -294 106 -52 24 -331 143
-620 265 -288 122 -534 229 -547 237 -13 9 -23 20 -23 25 0 17 61 0 186 -53z
m3172 -11 c7 -7 12 -18 12 -25 0 -21 -442 -228 -467 -219 -25 10 -13 45 31 83
47 41 223 138 290 159 53 16 119 17 134 2z m-3285 -11 c48 -21 64 -43 48 -70
-9 -14 -10 -22 -3 -25 8 -2 8 -11 1 -29 -9 -26 -4 -46 12 -41 5 2 19 23 31 48
32 62 64 65 155 12 204 -118 541 -286 750 -374 131 -55 259 -109 285 -120 37
-16 44 -23 35 -33 -7 -7 -16 -10 -22 -7 -5 2 -5 -1 1 -7 7 -7 49 -34 95 -61
46 -26 84 -54 84 -61 0 -26 -47 -40 -131 -37 l-82 3 9 -23 c14 -36 11 -43 -15
-36 -19 4 -25 1 -30 -20 -9 -36 -48 -59 -84 -51 -48 10 -77 49 -78 106 -1 27
-3 52 -4 57 -1 4 -2 10 -1 14 0 4 -9 10 -20 13 -19 6 -19 8 11 61 l30 54 -107
51 c-447 211 -444 210 -479 203 -25 -4 -34 -11 -34 -26 0 -33 -29 -77 -56 -84
-14 -4 -37 -1 -52 6 -49 24 -122 22 -122 -3 0 -7 -12 -23 -26 -36 -14 -14 -35
-45 -47 -70 -11 -25 -25 -49 -29 -52 -5 -3 -17 -36 -28 -74 -11 -37 -21 -70
-24 -72 -2 -2 -4 58 -3 134 0 173 -11 283 -28 283 -7 0 -25 10 -40 22 -26 21
-28 21 -41 4 -12 -17 -14 -17 -29 -2 -13 13 -15 28 -9 84 8 85 -1 105 -61 128
-52 19 -142 15 -251 -12 -57 -15 -64 -19 -64 -41 0 -18 4 -24 14 -20 8 3 41 9
73 12 79 8 143 -11 161 -49 15 -29 10 -35 -50 -71 -9 -5 -51 -38 -93 -73 -42
-35 -77 -62 -78 -60 -36 73 -64 95 -139 108 -53 10 -108 6 -203 -15 -30 -6
-30 -6 7 17 20 13 79 42 132 63 53 22 96 42 96 45 0 3 -4 11 -9 19 -11 17 -67
-1 -236 -75 -108 -48 -124 -52 -104 -28 30 37 258 135 579 250 213 76 249 83
303 61z m-3118 -241 c138 -62 285 -128 328 -146 83 -36 85 -50 9 -50 -25 0
-54 8 -70 18 -15 10 -47 32 -72 48 -45 30 -181 89 -415 180 -99 38 -126 53
-157 88 -20 22 -37 44 -38 47 0 3 37 -12 83 -34 45 -21 195 -90 332 -151z
m425 149 c36 -19 50 -43 50 -89 0 -32 3 -35 43 -48 23 -8 43 -22 45 -31 3 -14
-3 -14 -47 4 -46 20 -51 20 -73 5 -12 -9 -33 -16 -46 -16 -31 0 -98 35 -106
55 -17 46 6 102 49 121 39 17 50 17 85 -1z m5259 -61 c42 -17 57 -37 38 -52
-7 -5 -40 -24 -73 -40 -34 -17 -82 -49 -107 -70 -51 -44 -212 -130 -223 -119
-7 7 -10 25 -18 114 -3 24 -7 52 -11 63 -5 16 -2 20 17 20 21 0 116 -19 179
-35 24 -6 27 -4 32 32 7 41 35 75 77 92 35 14 44 13 89 -5z m-4821 -194 c276
-93 418 -124 531 -117 47 3 97 8 111 12 14 4 -2 -10 -35 -32 -91 -60 -145
-133 -145 -198 0 -32 -6 -32 -37 5 -14 17 -44 43 -67 59 -51 35 -320 183 -401
221 -204 95 -218 102 -204 111 23 14 30 12 247 -61z m827 -5 c0 -30 -39 -27
-43 3 -3 20 0 23 20 20 15 -2 23 -10 23 -23z m-930 -185 c121 -51 249 -104
285 -119 55 -22 68 -33 89 -71 27 -49 24 1 36 -597 5 -258 3 -313 -8 -313 -24
0 -66 -55 -86 -112 -23 -66 -41 -174 -42 -255 -1 -32 -3 -50 -6 -40 -2 9 -9
17 -14 17 -5 0 -9 11 -9 24 0 14 -4 27 -9 30 -4 3 -11 20 -15 37 -6 32 -35
100 -46 109 -4 3 -10 19 -14 35 -4 17 -14 44 -21 60 -8 17 -22 53 -31 80 -20
62 -45 118 -57 126 -4 3 -7 10 -5 15 1 5 -6 24 -15 41 -10 18 -17 34 -16 35 0
2 -4 15 -9 29 -6 14 -16 44 -23 67 -7 23 -16 42 -21 42 -4 0 -8 6 -8 13 0 6
-6 23 -13 37 -43 82 -117 260 -121 290 -3 19 -12 71 -21 115 -9 44 -18 94 -19
110 -1 17 -8 46 -14 65 -20 63 -34 161 -24 173 5 7 6 21 1 32 -4 11 -8 23 -8
27 -1 9 -6 11 264 -102z m1168 38 c7 -22 -4 -38 -29 -38 -12 0 -35 -10 -50
-23 -27 -23 -27 -24 -10 -53 21 -35 93 -90 209 -157 90 -53 77 -53 -53 0 -111
46 -161 76 -204 124 -58 63 -43 113 47 154 51 24 80 22 90 -7z m4733 -320
c-11 -274 -16 -366 -47 -948 -16 -316 -27 -585 -25 -596 5 -19 -40 -48 -417
-262 -755 -429 -994 -562 -1013 -562 -4 0 0 8 9 18 48 53 47 37 47 920 0 456
-3 916 -7 1024 l-6 195 -36 -13 c-20 -7 -44 -13 -53 -14 -17 0 -18 -54 -18
-982 0 -893 -5 -1115 -26 -1177 -6 -19 -20 -6 -108 99 l-72 86 -65 -169 -64
-169 -580 -265 c-779 -356 -706 -326 -781 -321 -43 3 -69 10 -83 22 -21 19
-21 19 -21 -41 0 -32 -7 -268 -15 -524 -8 -255 -17 -549 -19 -654 -19 -690
-29 -951 -37 -959 -13 -15 -110 -10 -174 9 -33 9 -91 36 -130 60 -38 23 -142
82 -230 131 -246 135 -150 81 -925 514 -322 180 -649 362 -727 406 -84 45
-138 81 -131 85 6 4 13 33 15 66 4 48 9 62 31 80 l27 23 -1 479 c-2 536 -5
600 -31 619 -43 32 -129 -4 -333 -141 -223 -150 -250 -168 -250 -163 0 6 198
176 205 176 3 0 3 -5 -1 -12 -4 -7 -3 -8 5 -4 6 4 9 11 6 16 -5 9 149 137 328
273 68 52 95 67 121 67 50 0 89 -49 113 -142 17 -68 18 -116 15 -656 l-4 -583
29 4 c77 13 154 30 158 37 2 3 -3 26 -11 50 -8 24 -18 87 -21 141 -6 95 -5 97
18 110 13 7 30 12 37 11 6 -2 12 4 12 12 0 8 148 130 329 271 l328 257 -79
172 c-44 94 -86 176 -93 182 -8 6 -12 14 -9 17 3 3 -35 86 -84 184 -50 98
-112 223 -138 278 -51 108 -48 86 -40 287 l3 66 -25 -9 c-14 -5 -26 -8 -28 -7
-1 2 -12 53 -24 113 -12 61 -23 117 -26 125 -3 13 -66 40 -94 40 -6 0 -10 -45
-10 -118 0 -106 -2 -121 -20 -137 -11 -10 -18 -20 -15 -23 3 -3 0 -11 -6 -19
-8 -8 -8 -13 -1 -13 8 0 9 -28 2 -37 -2 -2 -3 -7 -4 -12 0 -5 -3 -12 -6 -15
-3 -3 -7 61 -8 142 -1 81 -5 188 -8 237 -8 117 -15 723 -15 1184 0 381 4 418
44 446 35 24 68 18 178 -34 57 -26 262 -122 454 -211 193 -90 352 -165 354
-167 3 -1 -5 -14 -18 -26 l-22 -24 93 -43 c51 -24 108 -49 126 -57 17 -7 32
-16 32 -20 0 -12 -177 6 -237 25 -35 11 -60 16 -57 11 3 -5 -18 -33 -46 -63
-35 -37 -47 -56 -39 -62 8 -5 9 -3 4 6 -6 9 -4 11 5 5 8 -5 11 -4 6 3 -3 6 -3
13 2 16 5 3 9 -2 9 -10 0 -8 -26 -43 -57 -77 -31 -34 -55 -67 -53 -72 2 -6
-17 -31 -42 -55 -25 -24 -45 -48 -45 -53 0 -5 -15 -27 -33 -50 -18 -23 -32
-49 -31 -57 1 -14 17 -57 35 -92 5 -11 4 -20 -3 -24 -7 -5 -8 -3 -3 6 5 9 4
11 -3 6 -8 -5 -6 -18 8 -43 10 -20 17 -39 15 -43 -2 -3 -6 -33 -10 -65 -4 -41
-12 -67 -28 -84 -17 -20 -18 -22 -2 -11 13 11 11 4 -8 -21 -15 -20 -27 -40
-27 -44 0 -5 -15 -25 -32 -44 -18 -19 -24 -29 -13 -21 19 15 19 15 0 -12 -11
-15 -28 -30 -38 -33 -9 -4 -15 -10 -13 -14 7 -11 -46 -49 -78 -57 -28 -7 -32
-14 -17 -30 5 -5 34 -56 65 -114 30 -58 140 -265 244 -460 l190 -354 122 -58
c68 -32 125 -58 128 -58 3 0 -11 13 -30 28 -87 69 -168 192 -168 255 0 37 27
93 48 102 83 34 174 22 302 -42 82 -41 110 -62 206 -158 120 -118 157 -174
158 -241 2 -90 -89 -124 -234 -89 -24 6 -24 6 -6 -9 27 -22 216 -115 248 -122
l27 -6 -6 134 c-5 113 -3 138 11 166 9 17 20 32 25 32 10 0 18 -65 27 -222 6
-105 9 -118 25 -118 44 0 48 60 11 186 -11 38 -25 91 -31 118 -14 61 -90 250
-173 431 l-65 140 89 88 c49 49 92 86 95 83 3 -3 29 13 57 35 l51 41 3 -181 2
-181 25 16 25 16 0 234 c0 210 2 238 19 269 14 27 20 32 25 19 3 -8 6 -238 6
-510 0 -323 3 -494 10 -494 12 0 11 -48 19 990 6 781 6 785 28 826 24 45 90
109 131 126 48 20 1554 709 1649 754 103 49 130 49 156 -3 38 -73 40 -105 38
-655 -1 -532 -1 -536 19 -531 18 5 19 3 9 -26 -6 -17 -15 -34 -20 -37 -5 -3
-9 -88 -9 -190 l0 -185 48 6 c26 3 67 8 92 11 25 3 54 6 65 8 16 2 32 38 88
197 87 251 185 508 260 684 72 171 216 478 250 536 l25 42 -3 -34 c-2 -19 -6
-46 -10 -61 -9 -35 7 -36 30 -2 12 19 19 23 30 14 9 -8 14 -62 17 -218 3 -164
7 -214 20 -242 9 -19 20 -46 24 -60 3 -14 11 -28 17 -32 6 -3 11 -18 13 -34 2
-15 9 -31 16 -35 7 -4 9 -11 5 -15 -4 -4 3 -22 14 -41 12 -19 19 -37 16 -40
-3 -3 5 -23 19 -44 13 -21 24 -48 24 -59 0 -11 9 -29 21 -41 11 -11 21 -30 22
-42 1 -12 14 -44 29 -70 15 -26 28 -52 28 -56 0 -5 6 -14 14 -21 8 -6 12 -19
9 -27 -4 -11 -2 -14 5 -9 15 9 57 143 76 242 36 194 59 498 72 962 l7 242 30
0 29 0 -6 -152z m-7130 81 c3 -6 13 -86 20 -177 62 -750 145 -1156 251 -1230
40 -27 371 -211 478 -265 63 -31 99 -44 117 -40 20 4 28 0 33 -17 8 -24 119
-80 237 -119 83 -27 114 -25 111 7 -2 13 -62 111 -134 219 -145 217 -190 300
-213 390 -20 76 -20 94 -2 87 8 -3 17 -26 21 -52 11 -74 61 -192 113 -268 26
-38 107 -147 179 -242 122 -160 209 -300 201 -322 -2 -5 -19 -2 -38 7 -59 27
-504 243 -520 253 -8 5 -98 57 -200 116 -102 59 -219 128 -260 154 -41 26 -86
53 -99 60 l-24 12 23 -38 c79 -131 151 -201 302 -291 104 -63 133 -74 548
-208 252 -82 393 -161 419 -235 5 -17 8 -30 5 -30 -2 0 -44 20 -92 44 -88 44
-205 98 -432 201 -469 211 -994 462 -1006 480 -9 15 -20 169 -38 580 -41 909
-42 935 -23 935 9 0 19 -5 23 -11z m2637 -238 c109 -50 225 -103 258 -117 100
-42 531 -248 579 -277 64 -38 29 -33 -81 11 -164 68 -1023 444 -1036 454 -7 6
-13 21 -13 34 l0 24 48 -19 c26 -10 136 -60 245 -110z m2257 30 c-30 -16 -66
-31 -80 -35 -14 -4 4 9 40 28 36 19 72 35 80 35 8 0 -10 -13 -40 -28z m-4346
-497 c7 -19 -10 -44 -31 -44 -17 0 -27 24 -19 45 7 20 42 19 50 -1z m306 -554
c24 -13 41 -65 31 -93 -34 -88 -161 -61 -161 34 0 50 79 86 130 59z m-732
-789 c17 -9 18 -15 6 -98 -6 -49 -17 -172 -24 -273 -6 -102 -12 -198 -14 -215
-2 -16 -3 121 -4 305 0 202 3 326 8 313 5 -12 17 -26 28 -32z m500 -140 c101
-51 175 -106 206 -155 54 -84 27 -145 -132 -297 -101 -96 -117 -108 -125 -92
-6 14 6 40 52 108 33 50 61 95 61 102 0 22 -51 72 -115 112 -63 40 -65 42 -65
84 0 37 5 66 25 155 3 12 8 22 10 22 3 0 40 -18 83 -39z m1243 -21 c4 -19 9
-57 10 -85 l3 -50 -42 -3 -42 -3 -2 43 c-3 72 3 123 15 131 26 16 51 2 58 -33z
m4753 0 c20 -51 20 -65 -3 -116 -34 -75 -138 -105 -208 -59 -22 15 -63 71 -63
87 0 19 207 126 246 127 7 1 19 -17 28 -39z m-4946 -79 c3 -19 1 -20 -20 -10
-30 13 -33 50 -3 39 11 -4 21 -17 23 -29z m4070 -230 c128 -64 144 -77 149
-122 3 -28 1 -29 -37 -29 -37 0 -40 -2 -31 -19 6 -10 8 -21 5 -24 -3 -3 4 -15
16 -27 28 -28 20 -36 -17 -17 -35 18 -151 47 -184 47 -13 -1 -41 -7 -61 -14
l-38 -14 0 117 0 116 38 21 c20 12 38 22 40 23 1 1 55 -26 120 -58z m-4272 15
c24 -63 -163 -246 -351 -343 -75 -39 -242 -100 -250 -92 -4 5 73 69 338 282
205 165 249 190 263 153z m3966 -212 c14 -48 21 -375 13 -576 -7 -176 -8 -188
-26 -188 -17 0 -18 -3 -8 -22 8 -15 13 -79 13 -188 1 -156 0 -165 -19 -168
-11 -3 -34 -16 -52 -30 -19 -13 -36 -22 -40 -18 -7 6 -21 237 -22 352 -1 52
-4 61 -18 60 -34 -4 -108 -30 -135 -48 l-28 -19 0 50 c0 27 -4 52 -9 55 -4 3
-51 -38 -103 -92 -123 -127 -151 -181 -156 -309 l-4 -93 -40 31 c-21 17 -41
29 -43 27 -3 -2 -46 -112 -96 -244 -57 -149 -91 -252 -90 -274 0 -19 -10 -64
-23 -100 -31 -84 -37 -107 -50 -209 l-11 -84 -49 -26 c-38 -20 -52 -34 -62
-63 -8 -24 -9 -38 -3 -38 41 0 326 139 539 263 86 50 149 81 154 76 19 -18
-76 -75 -453 -275 -278 -148 -286 -153 -298 -190 -12 -36 -22 -43 -128 -97
-63 -32 -115 -61 -115 -65 0 -6 85 -47 280 -135 l75 -34 -50 -7 c-46 -7 -56
-4 -109 28 -32 19 -66 41 -75 49 -9 7 -36 22 -61 34 -97 47 -91 47 -197 -4
-54 -25 -101 -47 -104 -49 -3 -2 -3 18 2 44 4 26 15 169 23 317 9 149 20 324
26 390 6 66 19 255 30 420 25 372 34 414 113 537 79 123 182 211 404 349 65
40 120 76 123 80 3 3 88 59 190 124 205 130 299 193 317 211 39 38 335 188
357 181 6 -2 14 -17 18 -33z m383 -80 c36 -15 65 -32 65 -40 0 -8 9 -14 21
-14 14 0 19 -5 16 -14 -3 -8 -3 -16 1 -18 14 -6 53 -69 48 -77 -3 -4 15 -18
39 -30 50 -25 79 -57 95 -107 6 -19 16 -34 21 -34 5 0 9 -5 9 -11 0 -14 106
-119 120 -119 6 0 9 -4 5 -9 -6 -11 40 -61 56 -61 6 0 7 -4 4 -10 -3 -5 1 -10
10 -10 9 0 28 -13 42 -30 13 -16 31 -30 38 -30 7 0 18 -15 25 -32 19 -49 90
-110 90 -78 0 15 27 -2 71 -43 20 -19 44 -37 53 -40 55 -21 -91 136 -217 234
-49 38 -86 69 -82 69 24 0 187 -107 287 -188 77 -61 138 -138 147 -185 5 -21
16 -36 34 -45 34 -17 34 -36 0 -60 -16 -11 -180 -99 -366 -197 l-338 -178 103
-55 c57 -30 163 -84 237 -120 128 -62 136 -64 168 -53 29 11 38 10 58 -3 14
-9 25 -25 25 -35 0 -22 21 -41 79 -70 52 -26 111 -70 111 -82 0 -5 -7 -9 -17
-9 -16 0 -234 92 -263 111 -8 5 -138 71 -289 146 l-273 136 -92 -46 c-50 -25
-146 -75 -213 -111 -126 -67 -157 -79 -80 -31 l42 27 -4 751 c-3 767 -1 827
34 827 8 0 44 -12 80 -26z m-1957 -1314 c-2 -340 -6 -621 -9 -624 -2 -3 -14 3
-27 12 l-22 17 10 525 c10 548 14 662 25 680 24 39 26 -21 23 -610z m-4466 39
c137 -69 389 -179 409 -179 11 0 28 6 39 12 26 16 49 3 70 -40 11 -22 35 -41
85 -66 39 -19 82 -47 95 -61 l23 -25 -23 0 c-27 0 -193 67 -335 135 -49 23
-171 79 -270 123 -99 44 -200 89 -224 100 l-44 20 29 16 c34 18 45 15 146 -35z
m5978 -100 c0 -4 9 -10 19 -14 11 -3 29 -26 41 -51 26 -53 21 -99 -14 -137
-45 -49 -103 -48 -159 2 -27 25 -32 36 -32 74 0 48 28 90 67 103 12 3 18 15
18 35 l0 30 30 -18 c17 -9 30 -21 30 -24z m-5063 -136 c-3 -10 -5 -4 -5 12 0
17 2 24 5 18 2 -7 2 -21 0 -30z m-1498 -58 c113 -34 233 -76 228 -81 -4 -5
-277 40 -351 57 l-49 12 34 18 c43 23 36 23 138 -6z m8288 -112 c-3 -10 -5 -2
-5 17 0 19 2 27 5 18 2 -10 2 -26 0 -35z m-6759 7 c11 -18 23 -20 115 -20 92
-1 100 -2 77 -15 -14 -7 -56 -23 -94 -35 -55 -18 -73 -20 -92 -11 -22 10 -54
63 -54 91 0 18 35 11 48 -10z m5458 -74 c27 -15 28 -16 4 -12 -142 26 -297 59
-304 66 -4 5 4 15 20 23 26 13 35 12 139 -23 61 -21 124 -45 141 -54z m-8166
-5 c167 -28 408 -57 710 -86 146 -13 321 -31 390 -39 69 -8 181 -18 250 -22
69 -4 136 -10 149 -13 l24 -7 -25 -16 c-24 -16 -341 -77 -513 -99 -134 -17
-329 -6 -446 25 -119 31 -681 256 -687 275 -3 9 1 11 14 7 11 -3 71 -14 134
-25z m9482 -76 c18 -21 30 -25 77 -25 31 0 73 -3 95 -7 l38 -6 -33 -14 c-19
-8 -58 -21 -87 -28 -81 -21 -110 -4 -127 73 -8 39 6 42 37 7z m-1957 -100 c66
-9 212 -29 325 -45 113 -16 261 -34 329 -41 121 -12 123 -12 100 -30 -13 -9
-41 -20 -63 -24 -396 -64 -631 -79 -780 -51 -82 16 -221 57 -255 76 -9 5 24
27 100 68 63 34 116 61 119 62 3 0 60 -7 125 -15z m-7978 -135 c59 -37 -244
36 -320 77 l-50 28 38 16 37 17 139 -63 c76 -35 146 -68 156 -75z m3474 45
c189 -77 366 -157 419 -190 39 -25 41 -28 26 -43 -14 -15 -19 -15 -39 -3 -89
57 -446 214 -619 274 -10 4 -18 12 -18 18 0 23 87 2 231 -56z m-241 -51 c600
-241 1128 -444 1156 -444 8 0 77 -22 152 -50 78 -29 154 -50 177 -50 45 0 149
-53 142 -73 -2 -7 -20 -11 -43 -10 -21 2 -41 -2 -44 -8 -7 -11 -119 30 -222
82 -34 17 -76 33 -93 36 -58 8 -171 45 -310 103 -77 32 -356 145 -619 251
-279 112 -490 203 -505 217 l-26 23 35 -5 c20 -4 110 -36 200 -72z m9758 11
c28 -13 52 -30 52 -38 0 -13 -74 -51 -163 -83 -34 -12 -37 -12 -29 4 5 9 21
45 37 80 16 34 34 62 40 62 5 0 34 -11 63 -25z m-9898 -23 c40 -20 50 -50 24
-69 -17 -12 -17 -13 2 -14 18 0 18 -1 -1 -9 -11 -5 -14 -9 -7 -9 6 -1 12 -12
12 -26 0 -35 27 -32 35 4 8 37 40 71 68 71 12 0 42 -12 67 -26 158 -91 555
-278 781 -369 241 -97 302 -125 273 -125 -6 0 -11 -6 -11 -13 0 -7 40 -35 89
-62 48 -26 88 -52 88 -56 0 -21 -63 -39 -133 -39 l-74 0 5 -29 c3 -25 1 -29
-15 -25 -13 4 -21 -3 -30 -25 -16 -43 -57 -58 -101 -37 -37 18 -64 70 -55 104
3 12 0 29 -7 37 -10 12 -10 15 1 16 8 0 2 5 -12 10 l-27 10 19 39 c11 22 23
40 28 40 4 0 8 6 8 14 0 14 -78 51 -422 204 -93 41 -115 47 -142 40 -26 -7
-32 -14 -35 -40 -2 -20 -13 -38 -31 -52 -24 -18 -31 -19 -60 -7 -48 19 -96 19
-115 0 -39 -37 -63 -72 -79 -112 -9 -23 -20 -45 -25 -48 -5 -3 -17 -34 -27
-70 l-18 -64 -7 140 c-10 208 -16 255 -33 255 -8 0 -28 9 -43 20 l-29 20 -6
-21 c-6 -19 -8 -20 -26 -3 -16 14 -18 26 -13 88 6 67 5 72 -20 96 -36 33 -126
39 -233 15 -91 -20 -114 -30 -107 -48 3 -10 31 -13 103 -13 84 1 102 -2 120
-18 20 -18 29 -56 14 -56 -7 0 -49 -34 -167 -135 l-39 -34 -17 32 c-36 69
-143 94 -275 63 -33 -8 -62 -13 -64 -10 -2 2 53 31 122 65 91 44 124 64 120
75 -3 8 -10 14 -17 14 -6 0 -78 -29 -161 -65 -82 -36 -151 -65 -152 -65 -2 0
-3 4 -3 10 0 24 235 133 550 254 208 80 251 88 310 58z m7027 -53 c91 -34 427
-193 504 -239 67 -39 82 -61 47 -68 -9 -2 -56 20 -104 48 -111 64 -239 126
-414 201 -74 32 -136 62 -138 68 -6 18 43 13 105 -10z m178 -226 c553 -241
755 -326 844 -355 36 -11 115 -40 174 -64 59 -24 122 -44 141 -44 37 0 96 -26
96 -42 0 -6 3 -8 7 -5 7 8 43 -21 43 -35 0 -5 -17 -8 -38 -7 -21 2 -43 0 -49
-4 -15 -9 -97 23 -191 74 -40 22 -108 49 -150 60 -84 21 -81 20 -807 343 -280
125 -529 239 -553 252 -43 25 -49 50 -9 38 12 -3 234 -98 492 -211z m-4737
177 c17 -11 32 -24 32 -28 0 -5 -36 -28 -81 -52 -44 -24 -93 -56 -107 -72 -26
-26 -202 -131 -209 -124 -4 4 -13 58 -18 111 -3 22 -7 51 -11 64 -7 24 -7 24
52 17 32 -3 83 -13 112 -20 52 -14 52 -14 52 9 0 41 18 74 52 95 42 25 84 25
126 0z m-5368 -219 c140 -59 264 -111 275 -115 l20 -8 -20 -8 c-44 -18 -89 -9
-150 30 -33 22 -76 47 -95 55 -36 17 -266 104 -380 145 -36 13 -80 37 -98 54
-69 64 -55 66 71 9 67 -30 237 -103 377 -162z m330 174 c15 -16 24 -38 24 -60
1 -32 5 -37 44 -51 23 -9 42 -23 42 -30 0 -11 -10 -10 -47 5 -47 18 -48 18
-75 -2 -26 -20 -28 -20 -73 -3 -56 22 -79 53 -70 95 15 68 108 96 155 46z
m9344 -10 c34 -22 41 -47 19 -63 -14 -10 -15 -15 -5 -21 9 -5 11 -17 6 -34 -5
-21 -2 -27 9 -27 9 0 18 9 22 19 11 36 46 71 71 71 13 0 41 -11 62 -24 78 -50
491 -274 577 -313 50 -23 173 -78 275 -123 177 -78 219 -100 192 -100 -32 0
-4 -31 68 -74 44 -26 82 -51 85 -56 3 -5 -6 -16 -19 -25 -19 -13 -44 -16 -104
-13 l-80 3 6 -34 c5 -32 4 -33 -17 -22 -17 10 -21 9 -21 -4 0 -25 -46 -65 -74
-65 -14 0 -40 13 -57 28 -28 25 -33 36 -34 84 -2 60 -9 78 -30 78 -10 0 -11 5
-2 25 7 14 16 25 20 25 5 0 5 5 2 10 -3 6 1 13 9 16 9 3 16 12 16 19 0 16
-502 265 -534 265 -41 0 -56 -11 -56 -40 0 -19 -9 -36 -26 -49 -31 -24 -52
-26 -79 -8 -28 18 -90 20 -107 4 -35 -37 -59 -70 -79 -109 -12 -24 -25 -45
-29 -48 -4 -3 -15 -32 -26 -65 l-19 -60 -5 189 c-4 140 -9 191 -18 194 -7 2
-26 15 -42 29 l-30 25 -11 -26 c-12 -25 -13 -25 -26 -6 -10 15 -12 38 -7 92 6
70 5 74 -21 98 -23 22 -38 25 -111 29 -54 2 -110 -3 -158 -13 -65 -15 -73 -19
-69 -37 5 -18 11 -19 73 -13 96 9 170 -19 170 -64 0 -10 -19 -29 -42 -44 -24
-15 -74 -52 -112 -81 l-70 -54 -15 31 c-37 73 -124 98 -259 74 -106 -18 -94
-7 65 59 62 26 113 50 113 53 0 3 -4 11 -9 18 -6 11 -34 3 -132 -34 -68 -25
-141 -55 -161 -65 -29 -15 -38 -16 -38 -6 0 29 184 108 530 229 240 83 286 90
344 53z m-2634 -5 l-25 -20 27 0 c36 0 78 -51 78 -95 0 -29 5 -35 40 -49 22
-9 40 -20 40 -26 0 -14 -14 -12 -54 7 -33 15 -37 15 -69 -2 -32 -17 -35 -17
-80 3 -54 24 -74 58 -58 103 5 15 7 29 5 32 -4 3 104 65 116 66 3 0 -6 -8 -20
-19z m5768 -46 c2 -17 -10 -27 -70 -54 -284 -128 -362 -161 -375 -156 -27 11
-9 50 42 88 49 37 210 122 264 139 14 4 51 7 81 6 47 -2 55 -5 58 -23z
m-12167 -129 c349 -119 565 -157 685 -120 69 21 76 18 24 -8 -68 -33 -146
-115 -160 -168 -22 -79 -20 -76 -41 -47 -11 14 -43 42 -72 61 -70 46 -334 182
-480 247 -78 35 -113 56 -105 62 21 13 39 10 149 -27z m11485 -6 c19 -11 34
-25 34 -30 0 -5 -36 -27 -79 -49 -44 -22 -95 -53 -113 -69 -36 -31 -218 -126
-218 -114 -4 78 -14 162 -21 174 -4 9 -6 19 -3 22 4 4 110 -16 194 -38 24 -6
27 -3 35 37 18 77 101 110 171 67z m-10601 -14 c0 -30 -39 -27 -43 3 -3 20 0
23 20 20 15 -2 23 -10 23 -23z m5947 -81 c192 -69 372 -119 467 -130 37 -4 79
0 124 10 83 19 92 20 48 1 -97 -43 -191 -150 -191 -220 l0 -30 -31 38 c-17 21
-56 55 -87 75 -76 51 -322 188 -454 253 -68 34 -103 56 -95 61 20 13 28 11
219 -58z m806 -22 c3 -16 -2 -22 -17 -22 -24 0 -35 15 -27 36 9 23 40 13 44
-14z m-7636 -93 c139 -56 267 -105 284 -110 69 -20 94 -74 100 -219 2 -58 8
-238 15 -401 l11 -295 -40 -40 c-49 -49 -69 -109 -84 -258 -10 -92 -13 -106
-24 -91 -7 9 -10 23 -7 31 3 8 0 14 -6 14 -6 0 -11 5 -11 11 0 11 -13 43 -56
135 -13 28 -24 54 -24 57 0 4 -11 30 -24 59 -13 29 -29 71 -36 93 -7 22 -18
47 -25 55 -7 8 -16 26 -20 40 -4 14 -18 48 -30 75 -20 45 -32 77 -36 90 0 2
-34 73 -76 157 -41 84 -77 167 -80 183 -2 17 -8 44 -13 60 -5 17 -14 64 -20
105 -7 41 -18 95 -25 120 -26 87 -37 160 -26 173 6 8 6 18 1 27 -11 16 -13 30
-5 30 3 0 118 -46 257 -101z m1116 48 c2 -11 -9 -19 -36 -27 -56 -14 -70 -34
-51 -68 20 -37 98 -94 199 -147 106 -55 90 -57 -43 -5 -153 60 -237 125 -237
183 0 24 38 64 82 86 37 18 45 19 63 7 11 -7 21 -20 23 -29z m5727 -162 l230
-101 22 -45 c26 -53 25 -29 24 -491 -1 -323 -3 -378 -15 -378 -22 0 -64 -61
-87 -126 -11 -31 -25 -105 -32 -164 -10 -98 -12 -105 -24 -83 -7 14 -10 29 -7
34 3 5 0 9 -5 9 -6 0 -11 6 -11 14 0 8 -5 27 -12 43 -13 33 -12 30 -22 66 -5
15 -11 27 -15 27 -4 0 -13 24 -20 53 -8 28 -19 63 -26 77 -7 14 -24 54 -36 90
-13 36 -27 68 -31 71 -5 3 -8 10 -7 15 1 5 -2 20 -8 34 -6 14 -10 28 -9 31 0
3 -4 12 -10 20 -7 8 -15 29 -19 47 -3 17 -11 32 -15 32 -5 0 -7 7 -4 15 4 8 1
15 -5 15 -6 0 -11 8 -11 18 0 9 -7 31 -16 47 -8 17 -32 68 -51 115 -20 47 -40
90 -44 95 -4 6 -17 73 -29 150 -12 77 -28 172 -37 210 -21 98 -25 142 -14 149
6 4 6 18 1 35 l-8 30 61 -27 c34 -14 166 -72 292 -127z m1013 68 c13 -26 4
-43 -23 -43 -12 0 -33 -8 -45 -18 -49 -39 6 -103 173 -200 42 -24 77 -46 77
-48 0 -2 -30 7 -66 21 -165 62 -274 143 -274 203 0 65 132 135 158 85z m-9042
-161 c6 -4 17 -65 23 -137 61 -645 160 -1120 249 -1198 20 -17 198 -114 407
-221 103 -53 158 -76 174 -73 17 3 31 -3 47 -20 39 -42 239 -123 303 -123 47
0 40 23 -40 141 -40 57 -101 146 -135 197 -35 51 -77 119 -94 151 -28 56 -74
200 -66 208 8 9 36 -30 36 -50 1 -37 64 -189 102 -247 21 -30 96 -129 168
-220 149 -187 246 -340 216 -340 -5 0 -241 108 -390 179 -71 33 -135 61 -142
61 -8 0 -14 4 -14 8 0 5 -57 40 -127 77 -71 38 -193 106 -272 152 -79 46 -145
82 -147 80 -9 -9 98 -147 147 -191 60 -54 207 -144 287 -175 28 -11 138 -46
244 -77 228 -67 340 -105 428 -148 72 -34 140 -96 140 -125 0 -18 -7 -16 -82
18 -46 21 -184 82 -308 136 -358 155 -970 425 -1031 456 -31 15 -59 35 -63 45
-7 18 -71 1011 -81 1249 -3 83 -8 160 -11 173 -4 22 10 29 32 14z m2427 -138
c83 -36 247 -106 362 -156 286 -123 603 -272 584 -276 -21 -4 -120 35 -630
247 -539 223 -489 199 -489 228 0 12 5 23 10 23 6 0 79 -30 163 -66z m2312 46
c-8 -13 -91 -55 -125 -64 -14 -4 9 11 50 33 85 45 83 45 75 31z m4316 -114
c30 -13 122 -56 204 -96 83 -40 209 -99 280 -132 201 -92 569 -283 552 -286
-21 -4 -77 19 -610 263 -468 214 -509 236 -490 268 6 10 3 10 64 -17z m2364
-116 c-33 -15 -71 -31 -85 -34 -14 -4 7 9 45 28 39 19 77 34 85 34 8 0 -12
-12 -45 -28z m-10891 -336 c21 -8 21 -43 0 -51 -8 -3 -23 1 -31 10 -13 13 -14
19 -3 31 14 18 13 18 34 10z m6726 -59 c17 -20 5 -45 -20 -45 -11 0 -23 7 -26
15 -6 15 11 45 26 45 4 0 13 -7 20 -15z m-6400 -485 c44 -44 30 -109 -27 -131
-32 -12 -79 4 -93 32 -41 75 60 159 120 99z m6694 -61 c46 -36 32 -108 -24
-128 -83 -28 -141 70 -75 127 33 28 65 28 99 1z m-7385 -809 c-6 -51 -14 -177
-18 -279 l-7 -186 -7 105 c-8 128 -16 471 -10 487 3 7 13 2 29 -12 25 -23 25
-23 13 -115z m6663 74 c18 -20 18 -25 4 -120 -12 -85 -28 -253 -39 -424 -2
-25 -4 88 -5 250 -2 268 3 371 16 330 3 -8 13 -24 24 -36z m-426 -41 c13 -71
-40 -140 -121 -157 -64 -14 -166 68 -139 111 5 10 57 42 115 70 104 53 104 53
121 32 10 -11 20 -36 24 -56z m2070 42 c-1 -8 -7 -20 -13 -26 -13 -13 -13 7 0
29 11 16 16 15 13 -3z m-7809 -104 c123 -63 190 -124 200 -185 10 -63 -13
-103 -133 -225 -91 -94 -115 -114 -125 -103 -11 10 -10 17 4 40 89 140 100
163 87 186 -6 13 -48 47 -92 76 l-80 53 6 56 c4 31 11 77 17 103 12 53 9 54
116 -1z m1168 32 c3 -10 9 -48 12 -84 l6 -66 -29 -6 c-15 -3 -34 -3 -41 0 -21
8 -21 152 0 165 21 13 45 9 52 -9z m5568 -130 c116 -77 148 -143 108 -225 -20
-43 -228 -248 -250 -248 -23 0 -9 35 44 110 30 43 55 86 55 95 0 32 -21 55
-95 105 -41 28 -75 57 -75 64 0 18 18 111 30 158 l11 38 52 -26 c29 -15 82
-46 120 -71z m-5753 36 c0 -30 -32 -19 -38 13 -2 12 3 15 18 11 11 -3 20 -14
20 -24z m6854 -31 c14 -112 13 -118 -10 -124 -51 -13 -59 -4 -62 70 -4 86 0
96 37 96 28 0 30 -3 35 -42z m-194 -59 c0 -23 -26 -15 -33 10 -3 14 0 17 14
14 11 -3 19 -14 19 -24z m4748 0 c8 -14 11 -44 9 -73 -4 -42 -10 -55 -40 -83
-41 -37 -73 -48 -120 -39 -41 8 -94 53 -102 87 -5 22 0 30 35 53 44 29 179 86
195 82 6 -2 16 -13 23 -27z m-11598 -142 c0 -40 -35 -92 -106 -157 -128 -119
-257 -194 -422 -245 -39 -12 -42 -12 -30 2 17 21 478 407 503 421 38 22 55 15
55 -21z m6657 -63 c25 -65 -159 -237 -352 -329 -83 -40 -224 -89 -232 -81 -5
4 163 139 380 305 155 118 191 137 204 105z m-4332 -1463 l7 -563 -26 18 -26
19 3 570 c1 346 6 576 12 585 18 29 22 -61 30 -629z m6602 -46 c-4 -220 -11
-462 -15 -538 l-7 -138 -24 17 c-24 17 -24 18 -17 148 3 72 13 316 21 541 15
391 20 467 34 490 13 21 16 -136 8 -520z m-5172 75 c-3 -4 9 -13 26 -21 91
-37 91 -181 -1 -219 -25 -10 -36 -10 -67 5 -51 23 -73 52 -73 98 0 49 13 73
50 92 17 9 30 24 30 34 0 10 3 20 6 24 8 8 35 -3 29 -13z m6670 -277 c21 -32
21 -104 1 -135 -16 -25 -55 -48 -81 -48 -50 0 -115 62 -115 110 0 34 28 78 60
95 21 11 30 23 30 41 l0 25 45 -32 c25 -18 52 -43 60 -56z"/>
<path d="M8631 11678 c-19 -13 -44 -36 -55 -51 -20 -28 -21 -37 -17 -297 1
-147 6 -283 10 -301 l7 -33 24 39 c24 39 43 65 67 90 7 7 42 59 79 116 37 57
76 113 87 123 10 10 40 51 65 89 l45 71 -35 30 c-44 37 -199 136 -225 142 -10
3 -34 -5 -52 -18z"/>
<path d="M10216 10760 c-18 -55 -18 -56 0 -90 l19 -35 3 42 c2 23 2 64 0 90
l-3 48 -19 -55z"/>
<path d="M6145 9895 c-32 -16 -285 -211 -320 -246 -11 -12 39 21 110 71 176
125 207 142 247 138 27 -2 37 -10 53 -43 19 -38 20 -66 25 -495 3 -250 7 -446
8 -435 14 131 33 581 30 725 -3 163 -6 191 -25 232 -31 67 -68 82 -128 53z"/>
<path d="M7490 9756 c0 -7 29 -65 63 -127 l64 -113 256 -122 c141 -67 277
-127 302 -132 l46 -10 -7 82 c-3 44 -11 86 -18 92 -6 6 -148 73 -316 149 -168
76 -312 143 -320 150 -8 6 -27 19 -42 28 -23 14 -28 15 -28 3z"/>
<path d="M5779 9613 c-13 -16 -12 -17 4 -4 9 7 17 15 17 17 0 8 -8 3 -21 -13z"/>
<path d="M7673 9418 c37 -68 21 -55 290 -229 71 -46 157 -109 191 -141 l63
-57 7 70 c9 103 5 113 -78 158 -103 57 -497 261 -503 261 -3 0 11 -28 30 -62z"/>
<path d="M8336 9414 c-5 -13 -15 -16 -51 -12 l-45 6 0 -43 c0 -60 11 -106 24
-102 6 2 19 19 28 38 10 19 18 27 18 18 0 -25 -21 -81 -42 -111 -15 -22 -18
-46 -18 -165 1 -76 5 -158 10 -183 5 -25 12 -96 16 -157 7 -120 8 -120 60
-114 6 1 15 -22 20 -51 7 -43 10 -14 15 147 3 110 7 292 8 404 1 183 -1 203
-14 185 -13 -17 -14 -11 -14 64 1 84 -3 107 -15 76z"/>
<path d="M6767 8619 c-39 -23 -90 -160 -101 -274 l-6 -60 29 51 c65 112 148
148 240 102 55 -27 55 -28 2 70 -55 101 -113 140 -164 111z"/>
<path d="M9752 9520 c-7 -14 -36 -89 -65 -166 l-54 -142 76 41 c42 22 79 43
83 46 7 7 -8 172 -21 216 l-8 30 -11 -25z"/>
<path d="M5322 6150 c-18 -11 -41 -34 -53 -52 -20 -32 -20 -42 -14 -253 4
-121 10 -251 14 -290 l6 -70 22 35 c12 19 35 53 51 75 17 22 58 85 93 140 35
55 68 105 74 110 23 20 106 155 101 163 -12 20 -240 162 -258 162 -2 0 -18 -9
-36 -20z"/>
<path d="M12026 5977 c-74 -42 -77 -56 -74 -375 l3 -282 81 108 c45 59 101
136 124 172 24 36 49 70 56 75 6 6 35 42 62 82 l51 72 -68 50 c-67 50 -179
121 -190 121 -3 0 -24 -10 -45 -23z"/>
<path d="M6857 5298 c-17 -55 -17 -59 0 -90 l18 -33 3 42 c2 23 2 64 0 90 l-3
48 -18 -57z"/>
<path d="M13534 5076 c-20 -51 -20 -54 -4 -86 l17 -33 5 84 c3 46 5 85 4 86
-1 1 -11 -22 -22 -51z"/>
<path d="M4879 5053 c-13 -16 -12 -17 4 -4 16 13 21 21 13 21 -2 0 -10 -8 -17
-17z"/>
<path d="M11559 4913 l-24 -28 28 24 c15 14 27 26 27 28 0 8 -8 1 -31 -24z"/>
<path d="M2975 4395 c-16 -9 -46 -28 -65 -43 -51 -38 -300 -244 -300 -248 0
-1 69 49 153 111 167 126 204 148 244 143 69 -8 82 -104 83 -580 0 -212 4
-328 10 -328 6 0 10 33 10 78 0 42 5 185 10 317 8 238 2 406 -20 475 -22 75
-70 103 -125 75z"/>
<path d="M9564 4279 c-72 -51 -294 -220 -294 -225 0 -2 74 47 164 108 186 126
220 137 260 85 21 -28 21 -33 19 -469 -1 -242 0 -438 2 -436 2 2 13 130 24
285 23 304 26 522 10 592 -25 112 -83 131 -185 60z"/>
<path d="M4257 4283 c3 -10 33 -65 66 -122 l60 -104 81 -38 c218 -102 425
-191 464 -199 l43 -8 -6 47 c-16 126 -15 122 -54 138 -162 67 -571 249 -591
263 -14 9 -35 22 -47 29 -20 10 -22 9 -16 -6z"/>
<path d="M10900 4159 c0 -6 27 -62 59 -123 l60 -111 258 -127 c142 -70 270
-129 286 -133 l27 -5 -1 62 c-2 109 11 98 -244 220 -356 170 -368 176 -407
203 -21 14 -38 20 -38 14z"/>
<path d="M6383 3963 c-29 -81 -51 -149 -49 -150 3 -3 128 60 145 73 3 3 -17
166 -26 202 -3 12 -8 22 -12 22 -3 0 -30 -66 -58 -147z"/>
<path d="M4410 4016 c0 -3 16 -31 35 -64 33 -55 45 -65 152 -127 136 -80 259
-162 325 -217 l47 -39 7 36 c6 32 0 133 -8 140 -7 6 -548 275 -553 275 -3 0
-5 -2 -5 -4z"/>
<path d="M5070 3965 c-10 -12 -23 -15 -47 -12 l-33 6 0 -70 c0 -38 4 -69 9
-69 5 0 19 12 30 26 18 23 21 24 21 8 0 -11 -11 -39 -25 -63 -23 -39 -25 -54
-25 -162 0 -65 6 -158 14 -206 8 -49 18 -123 21 -165 l7 -78 33 0 34 0 4 -77
c1 -43 3 111 4 342 0 231 -2 410 -4 398 -2 -13 -9 -23 -15 -23 -7 0 -9 20 -6
58 3 31 2 68 -1 81 -6 22 -7 22 -21 6z"/>
<path d="M13026 3792 c-27 -70 -55 -141 -63 -159 l-13 -32 80 39 80 40 -5 43
c-2 23 -7 67 -10 99 -10 111 -16 108 -69 -30z"/>
<path d="M11071 3829 c34 -62 41 -68 208 -179 95 -64 203 -143 240 -177 l68
-62 7 52 c3 29 6 68 6 89 l0 36 -172 95 c-95 52 -222 121 -282 153 l-110 58
35 -65z"/>
<path d="M11709 3814 c-9 -12 -24 -15 -51 -11 l-38 5 0 -69 c0 -56 3 -69 15
-69 9 0 23 15 31 33 l15 32 -6 -35 c-3 -19 -17 -52 -31 -74 l-26 -39 6 -176
c9 -271 17 -375 30 -383 6 -4 21 -8 34 -8 21 0 22 -3 24 -112 1 -110 1 -108 9
52 28 584 29 741 7 709 -6 -9 -8 18 -5 74 2 48 2 87 1 87 -1 0 -8 -7 -15 -16z"/>
<path d="M8078 3444 c-38 -20 -36 -28 2 -9 17 9 30 18 30 20 0 7 -1 6 -32 -11z"/>
<path d="M7974 3384 c-18 -14 -18 -15 4 -4 12 6 22 13 22 15 0 8 -5 6 -26 -11z"/>
<path d="M3571 3164 c-29 -37 -60 -125 -71 -202 -14 -99 -13 -100 29 -35 63
98 143 124 234 76 l29 -14 -37 70 c-64 122 -138 164 -184 105z"/>
<path d="M10182 3065 c-43 -36 -92 -168 -92 -249 l0 -39 31 46 c17 26 45 57
61 69 44 30 113 34 162 9 22 -11 41 -20 42 -18 2 1 -16 38 -40 82 -40 76 -88
125 -122 125 -7 0 -26 -11 -42 -25z"/>
</g>
</svg>
